<mxfile host="app.diagrams.net" modified="2021-06-17T15:06:16.950Z" agent="5.0 (Windows NT 10.0; Win64; x64) AppleWebKit/537.36 (KHTML, like Gecko) Chrome/91.0.4472.106 Safari/537.36" etag="_FNoRLdP2UFhGx7riZl0" version="14.7.8" type="github">
  <diagram id="WMXwlDAuEzp5xiW4_SBh" name="Page-1">
    <mxGraphModel dx="2858" dy="1089" grid="1" gridSize="10" guides="1" tooltips="1" connect="1" arrows="1" fold="1" page="1" pageScale="1" pageWidth="827" pageHeight="1169" math="0" shadow="0">
      <root>
        <mxCell id="0" />
        <mxCell id="1" parent="0" />
        <mxCell id="-7lrNRh9GsRdwLbHITOG-4" style="edgeStyle=orthogonalEdgeStyle;rounded=0;orthogonalLoop=1;jettySize=auto;html=1;entryX=0.5;entryY=0;entryDx=0;entryDy=0;" edge="1" parent="1" source="-7lrNRh9GsRdwLbHITOG-1" target="-7lrNRh9GsRdwLbHITOG-2">
          <mxGeometry relative="1" as="geometry" />
        </mxCell>
        <mxCell id="-7lrNRh9GsRdwLbHITOG-5" style="edgeStyle=orthogonalEdgeStyle;rounded=0;orthogonalLoop=1;jettySize=auto;html=1;" edge="1" parent="1" source="-7lrNRh9GsRdwLbHITOG-1" target="-7lrNRh9GsRdwLbHITOG-3">
          <mxGeometry relative="1" as="geometry" />
        </mxCell>
        <mxCell id="-7lrNRh9GsRdwLbHITOG-1" value="Перешли на сайт" style="rounded=0;whiteSpace=wrap;html=1;fillColor=#d5e8d4;strokeColor=#82b366;" vertex="1" parent="1">
          <mxGeometry x="360" y="40" width="120" height="40" as="geometry" />
        </mxCell>
        <mxCell id="-7lrNRh9GsRdwLbHITOG-16" style="edgeStyle=orthogonalEdgeStyle;rounded=0;orthogonalLoop=1;jettySize=auto;html=1;" edge="1" parent="1" source="-7lrNRh9GsRdwLbHITOG-2">
          <mxGeometry relative="1" as="geometry">
            <mxPoint x="420" y="200" as="targetPoint" />
            <Array as="points">
              <mxPoint x="420" y="140" />
            </Array>
          </mxGeometry>
        </mxCell>
        <mxCell id="-7lrNRh9GsRdwLbHITOG-2" value="Самостоятельно" style="rounded=0;whiteSpace=wrap;html=1;fillColor=#d5e8d4;strokeColor=#82b366;" vertex="1" parent="1">
          <mxGeometry x="120" y="120" width="120" height="40" as="geometry" />
        </mxCell>
        <mxCell id="-7lrNRh9GsRdwLbHITOG-17" style="edgeStyle=orthogonalEdgeStyle;rounded=0;orthogonalLoop=1;jettySize=auto;html=1;entryX=0.5;entryY=0;entryDx=0;entryDy=0;" edge="1" parent="1" source="-7lrNRh9GsRdwLbHITOG-3">
          <mxGeometry relative="1" as="geometry">
            <mxPoint x="420" y="200" as="targetPoint" />
          </mxGeometry>
        </mxCell>
        <mxCell id="-7lrNRh9GsRdwLbHITOG-3" value="По уникальной ссылке" style="rounded=0;whiteSpace=wrap;html=1;fillColor=#d5e8d4;strokeColor=#82b366;" vertex="1" parent="1">
          <mxGeometry x="600" y="120" width="120" height="40" as="geometry" />
        </mxCell>
        <mxCell id="-7lrNRh9GsRdwLbHITOG-18" style="edgeStyle=orthogonalEdgeStyle;rounded=0;orthogonalLoop=1;jettySize=auto;html=1;exitX=0;exitY=0.5;exitDx=0;exitDy=0;" edge="1" parent="1" source="-7lrNRh9GsRdwLbHITOG-23">
          <mxGeometry relative="1" as="geometry">
            <mxPoint x="120" y="320" as="targetPoint" />
            <mxPoint x="360" y="220" as="sourcePoint" />
            <Array as="points">
              <mxPoint x="120" y="240" />
            </Array>
          </mxGeometry>
        </mxCell>
        <mxCell id="-7lrNRh9GsRdwLbHITOG-24" style="edgeStyle=orthogonalEdgeStyle;rounded=0;orthogonalLoop=1;jettySize=auto;html=1;exitX=1;exitY=0.5;exitDx=0;exitDy=0;" edge="1" parent="1" source="-7lrNRh9GsRdwLbHITOG-29" target="-7lrNRh9GsRdwLbHITOG-21">
          <mxGeometry relative="1" as="geometry">
            <mxPoint x="200" y="340" as="sourcePoint" />
            <Array as="points" />
          </mxGeometry>
        </mxCell>
        <mxCell id="-7lrNRh9GsRdwLbHITOG-70" style="edgeStyle=orthogonalEdgeStyle;rounded=0;orthogonalLoop=1;jettySize=auto;html=1;" edge="1" parent="1" source="-7lrNRh9GsRdwLbHITOG-21">
          <mxGeometry relative="1" as="geometry">
            <mxPoint x="420" y="440" as="targetPoint" />
          </mxGeometry>
        </mxCell>
        <mxCell id="-7lrNRh9GsRdwLbHITOG-21" value="форма регистрации" style="rounded=0;whiteSpace=wrap;html=1;" vertex="1" parent="1">
          <mxGeometry x="340" y="340" width="160" height="40" as="geometry" />
        </mxCell>
        <mxCell id="-7lrNRh9GsRdwLbHITOG-27" style="edgeStyle=orthogonalEdgeStyle;rounded=0;orthogonalLoop=1;jettySize=auto;html=1;entryX=0;entryY=0;entryDx=0;entryDy=0;" edge="1" parent="1" source="-7lrNRh9GsRdwLbHITOG-22" target="-7lrNRh9GsRdwLbHITOG-29">
          <mxGeometry relative="1" as="geometry">
            <mxPoint x="40" y="340" as="targetPoint" />
            <Array as="points">
              <mxPoint x="-60" y="460" />
              <mxPoint x="-60" y="320" />
              <mxPoint x="80" y="320" />
            </Array>
          </mxGeometry>
        </mxCell>
        <mxCell id="-7lrNRh9GsRdwLbHITOG-47" style="edgeStyle=orthogonalEdgeStyle;rounded=0;orthogonalLoop=1;jettySize=auto;html=1;" edge="1" parent="1" source="-7lrNRh9GsRdwLbHITOG-22" target="-7lrNRh9GsRdwLbHITOG-36">
          <mxGeometry relative="1" as="geometry">
            <Array as="points">
              <mxPoint x="100" y="510" />
              <mxPoint x="100" y="510" />
            </Array>
          </mxGeometry>
        </mxCell>
        <mxCell id="-7lrNRh9GsRdwLbHITOG-22" value="ввод данных пользователя" style="rounded=0;whiteSpace=wrap;html=1;" vertex="1" parent="1">
          <mxGeometry x="50" y="440" width="140" height="40" as="geometry" />
        </mxCell>
        <mxCell id="-7lrNRh9GsRdwLbHITOG-87" style="edgeStyle=orthogonalEdgeStyle;rounded=0;orthogonalLoop=1;jettySize=auto;html=1;entryX=0.906;entryY=0.025;entryDx=0;entryDy=0;entryPerimeter=0;" edge="1" parent="1" source="-7lrNRh9GsRdwLbHITOG-23" target="-7lrNRh9GsRdwLbHITOG-81">
          <mxGeometry relative="1" as="geometry">
            <mxPoint x="820" y="250" as="targetPoint" />
            <Array as="points">
              <mxPoint x="1041" y="240" />
            </Array>
          </mxGeometry>
        </mxCell>
        <mxCell id="-7lrNRh9GsRdwLbHITOG-23" value="Есть ли токен" style="rhombus;whiteSpace=wrap;html=1;" vertex="1" parent="1">
          <mxGeometry x="340" y="200" width="160" height="80" as="geometry" />
        </mxCell>
        <mxCell id="-7lrNRh9GsRdwLbHITOG-25" value="не выбрана" style="text;html=1;align=center;verticalAlign=middle;resizable=0;points=[];autosize=1;strokeColor=none;" vertex="1" parent="1">
          <mxGeometry x="200" y="340" width="80" height="20" as="geometry" />
        </mxCell>
        <mxCell id="-7lrNRh9GsRdwLbHITOG-26" value="нет" style="text;html=1;align=center;verticalAlign=middle;resizable=0;points=[];autosize=1;strokeColor=none;" vertex="1" parent="1">
          <mxGeometry x="310" y="220" width="30" height="20" as="geometry" />
        </mxCell>
        <mxCell id="-7lrNRh9GsRdwLbHITOG-28" value="отмена" style="text;html=1;align=center;verticalAlign=middle;resizable=0;points=[];autosize=1;strokeColor=none;" vertex="1" parent="1">
          <mxGeometry x="-10" y="440" width="60" height="20" as="geometry" />
        </mxCell>
        <mxCell id="-7lrNRh9GsRdwLbHITOG-30" style="edgeStyle=orthogonalEdgeStyle;rounded=0;orthogonalLoop=1;jettySize=auto;html=1;" edge="1" parent="1" source="-7lrNRh9GsRdwLbHITOG-29">
          <mxGeometry relative="1" as="geometry">
            <mxPoint x="120" y="440" as="targetPoint" />
            <Array as="points">
              <mxPoint x="-40" y="360" />
              <mxPoint x="-40" y="420" />
              <mxPoint x="120" y="420" />
              <mxPoint x="120" y="440" />
            </Array>
          </mxGeometry>
        </mxCell>
        <mxCell id="-7lrNRh9GsRdwLbHITOG-29" value="форма авторизации" style="rhombus;whiteSpace=wrap;html=1;" vertex="1" parent="1">
          <mxGeometry x="40" y="320" width="160" height="80" as="geometry" />
        </mxCell>
        <mxCell id="-7lrNRh9GsRdwLbHITOG-31" value="выбрана" style="text;html=1;align=center;verticalAlign=middle;resizable=0;points=[];autosize=1;strokeColor=none;" vertex="1" parent="1">
          <mxGeometry x="-20" y="340" width="60" height="20" as="geometry" />
        </mxCell>
        <mxCell id="-7lrNRh9GsRdwLbHITOG-51" style="edgeStyle=orthogonalEdgeStyle;rounded=0;orthogonalLoop=1;jettySize=auto;html=1;" edge="1" parent="1" source="-7lrNRh9GsRdwLbHITOG-36">
          <mxGeometry relative="1" as="geometry">
            <mxPoint x="100" y="620" as="targetPoint" />
            <Array as="points">
              <mxPoint x="100" y="600" />
            </Array>
          </mxGeometry>
        </mxCell>
        <mxCell id="-7lrNRh9GsRdwLbHITOG-52" style="edgeStyle=orthogonalEdgeStyle;rounded=0;orthogonalLoop=1;jettySize=auto;html=1;entryX=0.633;entryY=1.011;entryDx=0;entryDy=0;entryPerimeter=0;" edge="1" parent="1" source="-7lrNRh9GsRdwLbHITOG-36" target="-7lrNRh9GsRdwLbHITOG-22">
          <mxGeometry relative="1" as="geometry">
            <Array as="points">
              <mxPoint x="139" y="500" />
            </Array>
          </mxGeometry>
        </mxCell>
        <mxCell id="-7lrNRh9GsRdwLbHITOG-36" value="второй этап аудентификации" style="whiteSpace=wrap;html=1;" vertex="1" parent="1">
          <mxGeometry x="20" y="530" width="200" height="40" as="geometry" />
        </mxCell>
        <mxCell id="-7lrNRh9GsRdwLbHITOG-49" style="edgeStyle=orthogonalEdgeStyle;rounded=0;orthogonalLoop=1;jettySize=auto;html=1;" edge="1" parent="1" source="-7lrNRh9GsRdwLbHITOG-39" target="-7lrNRh9GsRdwLbHITOG-36">
          <mxGeometry relative="1" as="geometry">
            <Array as="points">
              <mxPoint x="140" y="580" />
              <mxPoint x="140" y="580" />
            </Array>
          </mxGeometry>
        </mxCell>
        <mxCell id="-7lrNRh9GsRdwLbHITOG-39" value="генерация секретного значения с&lt;br&gt;использованием токена пользователя" style="whiteSpace=wrap;html=1;" vertex="1" parent="1">
          <mxGeometry y="620" width="240" height="40" as="geometry" />
        </mxCell>
        <mxCell id="-7lrNRh9GsRdwLbHITOG-55" value="" style="endArrow=none;dashed=1;html=1;" edge="1" parent="1">
          <mxGeometry width="50" height="50" relative="1" as="geometry">
            <mxPoint x="250" y="660" as="sourcePoint" />
            <mxPoint x="250" y="440" as="targetPoint" />
          </mxGeometry>
        </mxCell>
        <mxCell id="-7lrNRh9GsRdwLbHITOG-56" value="Заполнили" style="text;html=1;align=center;verticalAlign=middle;resizable=0;points=[];autosize=1;strokeColor=none;" vertex="1" parent="1">
          <mxGeometry x="250" y="530" width="80" height="20" as="geometry" />
        </mxCell>
        <mxCell id="-7lrNRh9GsRdwLbHITOG-61" style="edgeStyle=orthogonalEdgeStyle;rounded=0;orthogonalLoop=1;jettySize=auto;html=1;entryX=0.378;entryY=0.115;entryDx=0;entryDy=0;entryPerimeter=0;" edge="1" parent="1" source="-7lrNRh9GsRdwLbHITOG-59" target="-7lrNRh9GsRdwLbHITOG-29">
          <mxGeometry relative="1" as="geometry">
            <mxPoint x="-120" y="720" as="targetPoint" />
            <Array as="points">
              <mxPoint x="-100" y="760" />
              <mxPoint x="-100" y="300" />
              <mxPoint x="100" y="300" />
              <mxPoint x="100" y="329" />
            </Array>
          </mxGeometry>
        </mxCell>
        <mxCell id="-7lrNRh9GsRdwLbHITOG-63" style="edgeStyle=orthogonalEdgeStyle;rounded=0;orthogonalLoop=1;jettySize=auto;html=1;exitX=1;exitY=0.5;exitDx=0;exitDy=0;" edge="1" parent="1" source="-7lrNRh9GsRdwLbHITOG-59">
          <mxGeometry relative="1" as="geometry">
            <mxPoint x="670" y="800" as="targetPoint" />
            <Array as="points">
              <mxPoint x="670" y="760" />
            </Array>
          </mxGeometry>
        </mxCell>
        <mxCell id="-7lrNRh9GsRdwLbHITOG-59" value="Введено все успешно" style="rhombus;whiteSpace=wrap;html=1;" vertex="1" parent="1">
          <mxGeometry x="290" y="720" width="260" height="80" as="geometry" />
        </mxCell>
        <mxCell id="-7lrNRh9GsRdwLbHITOG-62" value="нет" style="text;html=1;align=center;verticalAlign=middle;resizable=0;points=[];autosize=1;strokeColor=none;" vertex="1" parent="1">
          <mxGeometry x="250" y="740" width="30" height="20" as="geometry" />
        </mxCell>
        <mxCell id="-7lrNRh9GsRdwLbHITOG-64" value="да" style="text;html=1;align=center;verticalAlign=middle;resizable=0;points=[];autosize=1;strokeColor=none;" vertex="1" parent="1">
          <mxGeometry x="555" y="740" width="30" height="20" as="geometry" />
        </mxCell>
        <mxCell id="-7lrNRh9GsRdwLbHITOG-66" style="edgeStyle=orthogonalEdgeStyle;rounded=0;orthogonalLoop=1;jettySize=auto;html=1;entryX=0.5;entryY=0;entryDx=0;entryDy=0;" edge="1" parent="1" source="-7lrNRh9GsRdwLbHITOG-65" target="-7lrNRh9GsRdwLbHITOG-74">
          <mxGeometry relative="1" as="geometry">
            <mxPoint x="410" y="840" as="targetPoint" />
            <Array as="points">
              <mxPoint x="420" y="840" />
            </Array>
          </mxGeometry>
        </mxCell>
        <mxCell id="-7lrNRh9GsRdwLbHITOG-68" style="edgeStyle=orthogonalEdgeStyle;rounded=0;orthogonalLoop=1;jettySize=auto;html=1;exitX=1;exitY=0.5;exitDx=0;exitDy=0;entryX=0.5;entryY=0;entryDx=0;entryDy=0;" edge="1" parent="1" source="-7lrNRh9GsRdwLbHITOG-65" target="-7lrNRh9GsRdwLbHITOG-73">
          <mxGeometry relative="1" as="geometry">
            <mxPoint x="920" y="840" as="targetPoint" />
          </mxGeometry>
        </mxCell>
        <mxCell id="-7lrNRh9GsRdwLbHITOG-65" value="Проверка уникальности&amp;nbsp;" style="rhombus;whiteSpace=wrap;html=1;" vertex="1" parent="1">
          <mxGeometry x="550" y="800" width="240" height="80" as="geometry" />
        </mxCell>
        <mxCell id="-7lrNRh9GsRdwLbHITOG-67" value="есть пользователь" style="text;html=1;align=center;verticalAlign=middle;resizable=0;points=[];autosize=1;strokeColor=none;" vertex="1" parent="1">
          <mxGeometry x="430" y="820" width="120" height="20" as="geometry" />
        </mxCell>
        <mxCell id="-7lrNRh9GsRdwLbHITOG-69" value="нет пользователя" style="text;html=1;align=center;verticalAlign=middle;resizable=0;points=[];autosize=1;strokeColor=none;" vertex="1" parent="1">
          <mxGeometry x="790" y="820" width="110" height="20" as="geometry" />
        </mxCell>
        <mxCell id="-7lrNRh9GsRdwLbHITOG-72" style="edgeStyle=orthogonalEdgeStyle;rounded=0;orthogonalLoop=1;jettySize=auto;html=1;entryX=0.5;entryY=0;entryDx=0;entryDy=0;" edge="1" parent="1" source="-7lrNRh9GsRdwLbHITOG-71" target="-7lrNRh9GsRdwLbHITOG-59">
          <mxGeometry relative="1" as="geometry" />
        </mxCell>
        <mxCell id="-7lrNRh9GsRdwLbHITOG-71" value="добавление данных пользователя" style="whiteSpace=wrap;html=1;" vertex="1" parent="1">
          <mxGeometry x="340" y="440" width="160" height="40" as="geometry" />
        </mxCell>
        <mxCell id="-7lrNRh9GsRdwLbHITOG-86" style="edgeStyle=orthogonalEdgeStyle;rounded=0;orthogonalLoop=1;jettySize=auto;html=1;entryX=0.738;entryY=-0.015;entryDx=0;entryDy=0;entryPerimeter=0;" edge="1" parent="1" source="-7lrNRh9GsRdwLbHITOG-73" target="-7lrNRh9GsRdwLbHITOG-81">
          <mxGeometry relative="1" as="geometry">
            <mxPoint x="900" y="990" as="targetPoint" />
          </mxGeometry>
        </mxCell>
        <mxCell id="-7lrNRh9GsRdwLbHITOG-73" value="запись в бд" style="rounded=0;whiteSpace=wrap;html=1;" vertex="1" parent="1">
          <mxGeometry x="840" y="900" width="120" height="40" as="geometry" />
        </mxCell>
        <mxCell id="-7lrNRh9GsRdwLbHITOG-75" style="edgeStyle=orthogonalEdgeStyle;rounded=0;orthogonalLoop=1;jettySize=auto;html=1;entryX=0.284;entryY=1.042;entryDx=0;entryDy=0;entryPerimeter=0;" edge="1" parent="1" source="-7lrNRh9GsRdwLbHITOG-74" target="-7lrNRh9GsRdwLbHITOG-71">
          <mxGeometry relative="1" as="geometry">
            <mxPoint x="370" y="440" as="targetPoint" />
            <Array as="points">
              <mxPoint x="200" y="920" />
              <mxPoint x="200" y="680" />
              <mxPoint x="385" y="680" />
              <mxPoint x="385" y="482" />
            </Array>
          </mxGeometry>
        </mxCell>
        <mxCell id="-7lrNRh9GsRdwLbHITOG-84" style="edgeStyle=orthogonalEdgeStyle;rounded=0;orthogonalLoop=1;jettySize=auto;html=1;entryX=0.37;entryY=0.012;entryDx=0;entryDy=0;entryPerimeter=0;" edge="1" parent="1" source="-7lrNRh9GsRdwLbHITOG-74" target="-7lrNRh9GsRdwLbHITOG-81">
          <mxGeometry relative="1" as="geometry">
            <Array as="points">
              <mxPoint x="591" y="920" />
            </Array>
          </mxGeometry>
        </mxCell>
        <mxCell id="-7lrNRh9GsRdwLbHITOG-74" value="пришли из формы регистрации" style="rhombus;whiteSpace=wrap;html=1;" vertex="1" parent="1">
          <mxGeometry x="280" y="880" width="280" height="80" as="geometry" />
        </mxCell>
        <mxCell id="-7lrNRh9GsRdwLbHITOG-76" value="да" style="text;html=1;align=center;verticalAlign=middle;resizable=0;points=[];autosize=1;strokeColor=none;" vertex="1" parent="1">
          <mxGeometry x="250" y="900" width="30" height="20" as="geometry" />
        </mxCell>
        <mxCell id="-7lrNRh9GsRdwLbHITOG-77" value="err: такой user уже есть" style="text;html=1;align=center;verticalAlign=middle;resizable=0;points=[];autosize=1;strokeColor=none;rotation=-90;" vertex="1" parent="1">
          <mxGeometry x="110" y="830" width="150" height="20" as="geometry" />
        </mxCell>
        <mxCell id="-7lrNRh9GsRdwLbHITOG-82" style="edgeStyle=orthogonalEdgeStyle;rounded=0;orthogonalLoop=1;jettySize=auto;html=1;" edge="1" parent="1" source="-7lrNRh9GsRdwLbHITOG-81">
          <mxGeometry relative="1" as="geometry">
            <mxPoint x="700" y="1080" as="targetPoint" />
          </mxGeometry>
        </mxCell>
        <mxCell id="-7lrNRh9GsRdwLbHITOG-81" value="генерируем новый токен" style="whiteSpace=wrap;html=1;" vertex="1" parent="1">
          <mxGeometry x="280" y="1000" width="840" height="40" as="geometry" />
        </mxCell>
        <mxCell id="-7lrNRh9GsRdwLbHITOG-83" value="доступ к форме выбора комнаты и роли" style="whiteSpace=wrap;html=1;fillColor=#dae8fc;strokeColor=#6c8ebf;" vertex="1" parent="1">
          <mxGeometry x="280" y="1080" width="840" height="40" as="geometry" />
        </mxCell>
        <mxCell id="-7lrNRh9GsRdwLbHITOG-85" value="нет" style="text;html=1;align=center;verticalAlign=middle;resizable=0;points=[];autosize=1;strokeColor=none;" vertex="1" parent="1">
          <mxGeometry x="560" y="900" width="30" height="20" as="geometry" />
        </mxCell>
        <mxCell id="-7lrNRh9GsRdwLbHITOG-88" value="да" style="text;html=1;align=center;verticalAlign=middle;resizable=0;points=[];autosize=1;strokeColor=none;" vertex="1" parent="1">
          <mxGeometry x="500" y="220" width="30" height="20" as="geometry" />
        </mxCell>
      </root>
    </mxGraphModel>
  </diagram>
</mxfile>
